<svg width="128" height="56" viewBox="0 0 128 56" fill="none" xmlns="http://www.w3.org/2000/svg">
<path d="M38.4666 32.0462H42.1248V27.8891H45.1733V24.9884H42.1248V23.806H46.1894V20.9053H38.4666V32.0462ZM46.8915 32.0462H50.4204V20.9053H46.8915V32.0462ZM51.1594 23.2887H54.6329V20.9053H51.1594V23.2887ZM51.1594 32.0462H54.6329V24.3048H51.1594V32.0462ZM60.5451 25.1547H60.5082C60.0093 24.3603 59.2149 24.0831 58.3095 24.0831C56.3881 24.0831 55.3349 25.321 55.3349 28.2217C55.3349 31.03 56.7021 31.9168 58.2171 31.9168C59.0855 31.9168 60.0463 31.7321 60.619 30.9192H60.656V31.8984C60.656 32.8776 60.3234 33.2101 59.6768 33.2101C59.4181 33.2101 59.2149 33.1547 59.0671 33.0439C58.9192 32.933 58.8638 32.7667 58.8638 32.6004H55.6305C55.7968 34.1709 56.3881 35.224 59.4181 35.224C62.171 35.224 63.6491 34.5219 63.6491 31.3811V24.3048H60.5821L60.5451 25.1547ZM59.3811 29.8106C58.5312 29.8106 58.3095 29.0531 58.3095 28.1108C58.3095 27.2425 58.3835 26.2448 59.3996 26.2448C60.4342 26.2448 60.5451 27.1316 60.5451 28.0554C60.5451 29.0162 60.3788 29.8106 59.3811 29.8106ZM70.5033 24.0646C69.2472 24.0646 68.6005 24.5081 68.0647 25.3395H68.0278V20.9053H64.5543V32.0462H68.0278V27.224C68.0278 26.6143 68.3973 26.3556 68.8592 26.3556C69.3211 26.3556 69.6352 26.6882 69.6352 27.2425V32.0462H72.9239V26.8915C72.9239 24.8406 71.9447 24.0646 70.5033 24.0646ZM77.5799 21.7552L74.5129 23.0485V24.3048H73.515V26.5958H74.5129V30.1062C74.5129 31.843 75.344 32.2863 76.6377 32.2863C77.3765 32.2863 78.2821 32.1385 79.1131 31.9538V29.6628C78.7808 29.7552 78.4667 29.7552 78.208 29.7552C77.7646 29.7552 77.5799 29.5519 77.5799 28.9607V26.5774H79.2613V24.3048H77.5799V21.7552ZM86.7438 25.7275H81.2379V20.8683H80.1481V32.0462H81.2379V26.7067H86.7438V32.0462H87.8336V20.8683H86.7438V25.7275ZM94.0046 24.4342V28.5543C94.0046 29.3672 93.7646 30.0693 93.3582 30.6235C92.9518 31.1778 92.4526 31.4549 91.8062 31.4734C91.7874 31.4734 91.7874 31.4734 91.7691 31.4734C91.7509 31.4734 91.7321 31.4734 91.7321 31.4734H91.6585C90.9934 31.418 90.4942 31.2332 90.1801 30.8268C89.8661 30.4388 89.7554 29.7552 89.7554 28.8868V24.3972H88.7762V29.2748C88.7762 30.1801 88.9792 30.9192 89.4043 31.4734C89.829 32.0277 90.5499 32.3049 91.5657 32.3049C92.3049 32.3049 92.8224 32.194 93.1547 31.9538C93.4875 31.7136 93.7646 31.3995 94.0046 30.9746C94.0046 31.3071 94.0046 31.5843 94.0046 31.806V31.9353C94.0046 31.9908 94.0046 32.0462 94.0046 32.0647H94.9838C94.9838 31.7136 94.9838 31.3441 94.9838 30.993C94.9838 30.6605 94.9838 30.3649 94.9838 30.1062V24.4342H94.0046ZM101.746 24.97C101.118 24.3048 100.49 24.0277 99.6768 24.0277C99.6585 24.0277 99.6398 24.0277 99.6215 24.0277C99.6027 24.0277 99.5845 24.0277 99.5657 24.0277H99.4551C99.3074 24.0277 99.1223 24.0462 98.9006 24.0831C98.6976 24.1201 98.4759 24.1755 98.2542 24.2679C98.0142 24.3603 97.7925 24.4896 97.589 24.6374C97.3856 24.7852 97.2009 24.9884 97.0345 25.2286V20.8683H95.9447L95.9264 29.3857C95.9264 29.6259 95.9264 29.9214 95.9264 30.3095C95.9264 30.6974 95.9264 31.2702 95.9264 32.0462H97.0345V30.9746C97.2009 31.3995 97.552 31.6951 98.0507 31.9353C98.5499 32.1755 99.104 32.2863 99.7138 32.2863H99.8615C100.785 32.2863 101.525 31.843 102.06 30.9376C102.596 30.0508 102.688 29.0346 102.688 27.9076C102.614 26.6328 102.356 25.6166 101.746 24.97ZM101.765 27.9261C101.765 28.9607 101.598 29.7921 101.284 30.4573C100.952 31.1224 100.434 31.4549 99.6951 31.4549C98.7899 31.4549 98.1065 31.1224 97.6261 30.4757C97.1456 29.8291 96.9056 29.0162 96.9056 28.0369C96.9056 27.1131 97.1456 26.3741 97.6443 25.7644C98.1248 25.1732 98.7346 24.8776 99.4551 24.8776C100.101 24.8776 100.582 25.0623 100.896 25.4318C101.229 25.8014 101.451 26.2078 101.58 26.6513C101.653 26.8729 101.709 27.1131 101.728 27.3348C101.746 27.575 101.765 27.7598 101.765 27.9261Z" fill="white" style="fill:white;fill-opacity:1;"/>
<path fill-rule="evenodd" clip-rule="evenodd" d="M37.9677 28.6836V32.0462H35.7506C35.7506 32.0462 32.2033 32.0462 32.2033 28.6836H37.9677Z" fill="white" style="fill:white;fill-opacity:1;"/>
<path fill-rule="evenodd" clip-rule="evenodd" d="M37.9677 24.8038V28.1294H31.9815C31.9815 28.1294 28.4342 28.1294 28.4342 24.8038H37.9677Z" fill="white" style="fill:white;fill-opacity:1;"/>
<path fill-rule="evenodd" clip-rule="evenodd" d="M37.9677 20.9052V24.2308H28.2125C28.2125 24.2308 24.6652 24.2308 24.6652 20.9052H37.9677Z" fill="white" style="fill:white;fill-opacity:1;"/>
</svg>
